<svg xmlns="http://www.w3.org/2000/svg" width="800" height="210" viewBox="0 0 800 210">
  <rect width="800" height="210" fill="#f9f9f9" rx="12"/>

  <!-- Row labels -->
  <text x="24" y="22" font-family="system-ui,-apple-system,sans-serif" font-size="10" font-weight="700" fill="#a3a3a3" letter-spacing="1.5">NEUTRAL</text>
  <text x="24" y="118" font-family="system-ui,-apple-system,sans-serif" font-size="10" font-weight="700" fill="#a3a3a3" letter-spacing="1.5">ACCENT — VIOLET</text>

  <!-- Neutral swatches: #fafafa #f5f5f5 #e5e5e5 #d4d4d4 #a3a3a3 #737373 #525252 #404040 #262626 #171717 -->
  <rect x="24"  y="30" width="70" height="58" rx="7" fill="#fafafa" stroke="#e5e5e5" stroke-width="1"/>
  <rect x="100" y="30" width="70" height="58" rx="7" fill="#f5f5f5" stroke="#e5e5e5" stroke-width="1"/>
  <rect x="176" y="30" width="70" height="58" rx="7" fill="#e5e5e5"/>
  <rect x="252" y="30" width="70" height="58" rx="7" fill="#d4d4d4"/>
  <rect x="328" y="30" width="70" height="58" rx="7" fill="#a3a3a3"/>
  <rect x="404" y="30" width="70" height="58" rx="7" fill="#737373"/>
  <rect x="480" y="30" width="70" height="58" rx="7" fill="#525252"/>
  <rect x="556" y="30" width="70" height="58" rx="7" fill="#404040"/>
  <rect x="632" y="30" width="70" height="58" rx="7" fill="#262626"/>
  <rect x="708" y="30" width="70" height="58" rx="7" fill="#171717"/>

  <!-- Neutral step labels -->
  <text x="59"  y="102" text-anchor="middle" font-family="system-ui,-apple-system,sans-serif" font-size="10" fill="#a3a3a3">50</text>
  <text x="135" y="102" text-anchor="middle" font-family="system-ui,-apple-system,sans-serif" font-size="10" fill="#a3a3a3">100</text>
  <text x="211" y="102" text-anchor="middle" font-family="system-ui,-apple-system,sans-serif" font-size="10" fill="#a3a3a3">200</text>
  <text x="287" y="102" text-anchor="middle" font-family="system-ui,-apple-system,sans-serif" font-size="10" fill="#a3a3a3">300</text>
  <text x="363" y="102" text-anchor="middle" font-family="system-ui,-apple-system,sans-serif" font-size="10" fill="#a3a3a3">400</text>
  <text x="439" y="102" text-anchor="middle" font-family="system-ui,-apple-system,sans-serif" font-size="10" fill="#a3a3a3">500</text>
  <text x="515" y="102" text-anchor="middle" font-family="system-ui,-apple-system,sans-serif" font-size="10" fill="#a3a3a3">600</text>
  <text x="591" y="102" text-anchor="middle" font-family="system-ui,-apple-system,sans-serif" font-size="10" fill="#a3a3a3">700</text>
  <text x="667" y="102" text-anchor="middle" font-family="system-ui,-apple-system,sans-serif" font-size="10" fill="#a3a3a3">800</text>
  <text x="743" y="102" text-anchor="middle" font-family="system-ui,-apple-system,sans-serif" font-size="10" fill="#a3a3a3">900</text>

  <!-- Accent swatches: #f5f3ff #ede9fe #ddd6fe #c4b5fd #a78bfa #8b5cf6 #7c3aed #6d28d9 #5b21b6 #4c1d95 -->
  <rect x="24"  y="128" width="70" height="58" rx="7" fill="#f5f3ff" stroke="#e5e5e5" stroke-width="1"/>
  <rect x="100" y="128" width="70" height="58" rx="7" fill="#ede9fe"/>
  <rect x="176" y="128" width="70" height="58" rx="7" fill="#ddd6fe"/>
  <rect x="252" y="128" width="70" height="58" rx="7" fill="#c4b5fd"/>
  <rect x="328" y="128" width="70" height="58" rx="7" fill="#a78bfa"/>
  <rect x="404" y="128" width="70" height="58" rx="7" fill="#8b5cf6"/>
  <rect x="480" y="128" width="70" height="58" rx="7" fill="#7c3aed"/>
  <rect x="556" y="128" width="70" height="58" rx="7" fill="#6d28d9"/>
  <rect x="632" y="128" width="70" height="58" rx="7" fill="#5b21b6"/>
  <rect x="708" y="128" width="70" height="58" rx="7" fill="#4c1d95"/>

  <!-- Accent step labels -->
  <text x="59"  y="200" text-anchor="middle" font-family="system-ui,-apple-system,sans-serif" font-size="10" fill="#a3a3a3">50</text>
  <text x="135" y="200" text-anchor="middle" font-family="system-ui,-apple-system,sans-serif" font-size="10" fill="#a3a3a3">100</text>
  <text x="211" y="200" text-anchor="middle" font-family="system-ui,-apple-system,sans-serif" font-size="10" fill="#a3a3a3">200</text>
  <text x="287" y="200" text-anchor="middle" font-family="system-ui,-apple-system,sans-serif" font-size="10" fill="#a3a3a3">300</text>
  <text x="363" y="200" text-anchor="middle" font-family="system-ui,-apple-system,sans-serif" font-size="10" fill="#a3a3a3">400</text>
  <text x="439" y="200" text-anchor="middle" font-family="system-ui,-apple-system,sans-serif" font-size="10" fill="#a3a3a3">500</text>
  <text x="515" y="200" text-anchor="middle" font-family="system-ui,-apple-system,sans-serif" font-size="10" fill="#a3a3a3">600 ←</text>
  <text x="591" y="200" text-anchor="middle" font-family="system-ui,-apple-system,sans-serif" font-size="10" fill="#a3a3a3">700</text>
  <text x="667" y="200" text-anchor="middle" font-family="system-ui,-apple-system,sans-serif" font-size="10" fill="#a3a3a3">800</text>
  <text x="743" y="200" text-anchor="middle" font-family="system-ui,-apple-system,sans-serif" font-size="10" fill="#a3a3a3">900</text>
</svg>
